<?xml version="1.0" encoding="UTF-8" standalone="no"?>
<!-- Created with Inkscape (http://www.inkscape.org/) -->

<svg
   xmlns:dc="http://purl.org/dc/elements/1.1/"
   xmlns:cc="http://creativecommons.org/ns#"
   xmlns:rdf="http://www.w3.org/1999/02/22-rdf-syntax-ns#"
   xmlns:svg="http://www.w3.org/2000/svg"
   xmlns="http://www.w3.org/2000/svg"
   xmlns:sodipodi="http://sodipodi.sourceforge.net/DTD/sodipodi-0.dtd"
   xmlns:inkscape="http://www.inkscape.org/namespaces/inkscape"
   width="210mm"
   height="297mm"
   viewBox="0 0 744.09448819 1052.3622047"
   id="svg2"
   version="1.1"
   inkscape:version="0.91 r13725"
   sodipodi:docname="pedal sensor mount.svg">
  <defs
     id="defs4" />
  <sodipodi:namedview
     id="base"
     pagecolor="#ffffff"
     bordercolor="#666666"
     borderopacity="1.0"
     inkscape:pageopacity="0.0"
     inkscape:pageshadow="2"
     inkscape:zoom="1.4"
     inkscape:cx="113.90693"
     inkscape:cy="735.86466"
     inkscape:document-units="mm"
     inkscape:current-layer="layer1"
     showgrid="true"
     inkscape:window-width="1366"
     inkscape:window-height="706"
     inkscape:window-x="-8"
     inkscape:window-y="-8"
     inkscape:window-maximized="1"
     inkscape:object-nodes="true"
     inkscape:snap-intersection-paths="true"
     inkscape:snap-smooth-nodes="true">
    <inkscape:grid
       type="xygrid"
       id="grid4136"
       units="mm"
       spacingx="3.5433071"
       spacingy="3.5433072"
       empspacing="10" />
  </sodipodi:namedview>
  <metadata
     id="metadata7">
    <rdf:RDF>
      <cc:Work
         rdf:about="">
        <dc:format>image/svg+xml</dc:format>
        <dc:type
           rdf:resource="http://purl.org/dc/dcmitype/StillImage" />
        <dc:title></dc:title>
      </cc:Work>
    </rdf:RDF>
  </metadata>
  <g
     inkscape:label="Layer 1"
     inkscape:groupmode="layer"
     id="layer1">
    <path
       style="opacity:1;fill:#00ff00;fill-opacity:1;stroke:none;stroke-width:0.76865125;stroke-miterlimit:4;stroke-dasharray:none;stroke-dashoffset:0;stroke-opacity:1"
       d="m 79.724759,1055.9034 c -19.953928,0 -36.235786,15.7084 -37.160156,35.4336 l -0.04492,0 0,1.7715 -7.08646,30.1194 -35.4330729685,7.0857 0,141.7324 35.4335939685,7.0879 7.085937,30.1172 0,1.7715 0.04492,0 c 0.924387,19.7252 17.206237,35.4336 37.160156,35.4336 19.953926,0 36.235793,-15.7084 37.160163,-35.4336 l 0.0449,0 0,-1.7715 7.08593,-30.1172 35.4336,-7.0879 0,-141.7305 -35.43347,-7.0876 -7.08606,-30.1174 0,-1.7715 -0.0449,0 c -0.92439,-19.7252 -17.206244,-35.4337 -37.160163,-35.4337 z"
       id="path4899"
       inkscape:connector-curvature="0"
       sodipodi:nodetypes="cccccccccccscccccccccccc" />
    <path
       style="opacity:1;fill:#ff0000;fill-opacity:1;stroke:none;stroke-width:0.70866144;stroke-miterlimit:4;stroke-dasharray:none;stroke-dashoffset:0;stroke-opacity:1"
       d="m 17.716685,1140.9445 17.716535,0 0,21.2598 -17.716535,0 z"
       id="path4901"
       inkscape:connector-curvature="0"
       sodipodi:nodetypes="ccccc" />
    <path
       style="opacity:1;fill:#ff0000;fill-opacity:1;stroke:none;stroke-width:0.70866144;stroke-miterlimit:4;stroke-dasharray:none;stroke-dashoffset:0;stroke-opacity:1"
       d="m 53.149756,1140.9445 17.716536,0 0,21.2598 -17.716536,0 z"
       id="path4901-1"
       inkscape:connector-curvature="0"
       sodipodi:nodetypes="ccccc" />
    <path
       style="opacity:1;fill:#ff0000;fill-opacity:1;stroke:none;stroke-width:0.70866144;stroke-miterlimit:4;stroke-dasharray:none;stroke-dashoffset:0;stroke-opacity:1"
       d="m 88.582824,1140.9445 17.716536,0 0,21.2598 -17.716536,0 z"
       id="path4901-0"
       inkscape:connector-curvature="0"
       sodipodi:nodetypes="ccccc" />
    <path
       style="opacity:1;fill:#ff0000;fill-opacity:1;stroke:none;stroke-width:0.70866144;stroke-miterlimit:4;stroke-dasharray:none;stroke-dashoffset:0;stroke-opacity:1"
       d="m 124.0159,1140.9445 17.71654,0 0,21.2598 -17.71654,0 z"
       id="path4901-1-1"
       inkscape:connector-curvature="0"
       sodipodi:nodetypes="ccccc" />
    <path
       style="opacity:1;fill:#ff0000;fill-opacity:1;stroke:none;stroke-width:0.70866144;stroke-miterlimit:4;stroke-dasharray:none;stroke-dashoffset:0;stroke-opacity:1"
       d="m 17.716685,1250.787 17.716536,0 3e-6,10.6299 -17.716536,0 z"
       id="path4901-13"
       inkscape:connector-curvature="0"
       sodipodi:nodetypes="ccccc" />
    <path
       style="opacity:1;fill:#ff0000;fill-opacity:1;stroke:none;stroke-width:0.70866144;stroke-miterlimit:4;stroke-dasharray:none;stroke-dashoffset:0;stroke-opacity:1"
       d="m 53.149757,1250.787 17.716536,0 3e-6,10.6299 -17.716536,0 z"
       id="path4901-1-18"
       inkscape:connector-curvature="0"
       sodipodi:nodetypes="ccccc" />
    <path
       style="opacity:1;fill:#ff0000;fill-opacity:1;stroke:none;stroke-width:0.70866144;stroke-miterlimit:4;stroke-dasharray:none;stroke-dashoffset:0;stroke-opacity:1"
       d="m 88.582824,1250.787 17.716536,0 0,10.6299 -17.716536,0 z"
       id="path4901-0-7"
       inkscape:connector-curvature="0"
       sodipodi:nodetypes="ccccc" />
    <path
       style="opacity:1;fill:#ff0000;fill-opacity:1;stroke:none;stroke-width:0.70866144;stroke-miterlimit:4;stroke-dasharray:none;stroke-dashoffset:0;stroke-opacity:1"
       d="m 124.0159,1250.787 17.71654,0 0,10.6299 -17.71654,0 z"
       id="path4901-1-1-4"
       inkscape:connector-curvature="0"
       sodipodi:nodetypes="ccccc" />
    <path
       inkscape:connector-curvature="0"
       style="opacity:1;fill:#00ff00;fill-opacity:1;stroke:none;stroke-width:0.70866144;stroke-miterlimit:4;stroke-dasharray:none;stroke-dashoffset:0;stroke-opacity:1"
       d="m 242.71674,1256.1041 c -39.8622,0 -79.72461,26.573 -79.72461,79.7227 l 17.7168,0 0,10.6308 17.7168,0 0,-10.6308 17.71484,0 0,10.6308 17.7168,0 0,-10.6308 17.71679,0 0,10.6308 17.71679,0 0,-10.6308 17.7168,0 0,10.6308 17.7168,0 0,-10.6308 17.7168,0 c 0,-53.1497 -39.86241,-79.7227 -79.72461,-79.7227 z"
       id="path4886-5"
       sodipodi:nodetypes="sccccccccccccccccccs" />
    <path
       inkscape:connector-curvature="0"
       style="opacity:1;fill:#00ff00;fill-opacity:1;stroke:none;stroke-width:0.70866144;stroke-miterlimit:4;stroke-dasharray:none;stroke-dashoffset:0;stroke-opacity:1"
       d="m 242.71674,1071.8521 c -39.8622,0 -79.72461,26.573 -79.72461,79.7227 l 17.7168,0 0,10.6308 17.7168,0 0,-10.6308 17.71484,0 0,10.6308 17.7168,0 0,-10.6308 17.7168,0 0,10.6308 17.71678,0 0,-10.6308 17.7168,0 0,10.6308 17.7168,0 0,-10.6308 17.7168,0 c 0,-53.1497 -39.86241,-79.7227 -79.72461,-79.7227 z"
       id="path4886-5-5"
       sodipodi:nodetypes="sccccccccccccccccccs" />
    <path
       style="opacity:1;fill:#ff0000;fill-opacity:1;stroke:none;stroke-width:0.70866144;stroke-miterlimit:4;stroke-dasharray:none;stroke-dashoffset:0;stroke-opacity:1"
       d="m 248.0315,1128.5433 a 5.3149605,5.3149605 0 0 1 -5.31496,5.315 5.3149605,5.3149605 0 0 1 -5.31496,-5.315 5.3149605,5.3149605 0 0 1 5.31496,-5.3149 5.3149605,5.3149605 0 0 1 5.31496,5.3149 z"
       id="path5065" />
    <path
       style="opacity:1;fill:#ff0000;fill-opacity:1;stroke:none;stroke-width:0.70866144;stroke-miterlimit:4;stroke-dasharray:none;stroke-dashoffset:0;stroke-opacity:1"
       d="m 217.91338,1123.2283 a 5.3149605,5.3149605 0 0 1 -5.31496,5.3149 5.3149605,5.3149605 0 0 1 -5.31496,-5.3149 5.3149605,5.3149605 0 0 1 5.31496,-5.315 5.3149605,5.3149605 0 0 1 5.31496,5.315 z"
       id="path5068"
       inkscape:connector-curvature="0" />
    <path
       inkscape:connector-curvature="0"
       style="opacity:1;fill:#00ff00;fill-opacity:1;stroke:none;stroke-width:0.70866144;stroke-miterlimit:4;stroke-dasharray:none;stroke-dashoffset:0;stroke-opacity:1"
       d="m 242.71674,1163.9781 c -39.8622,0 -79.72461,26.573 -79.72461,79.7227 l 17.7168,0 0,10.6308 17.7168,0 0,-10.6308 17.71484,0 0,10.6308 17.7168,0 0,-10.6308 17.7168,0 0,10.6308 17.71677,0 0,-10.6308 17.7168,0 0,10.6308 17.7168,0 0,-10.6308 17.7168,0 c 0,-53.1497 -39.86241,-79.7227 -79.7246,-79.7227 z"
       id="path4886-5-5-5"
       sodipodi:nodetypes="sccccccccccccccccccs" />
    <path
       style="opacity:1;fill:#ff0000;fill-opacity:1;stroke:none;stroke-width:35.01496124;stroke-miterlimit:4;stroke-dasharray:none;stroke-dashoffset:0;stroke-opacity:1"
       d="m 242.71653,1231.2992 -9.20578,-5.315 0,-10.6299 9.20578,-5.315 9.20579,5.315 0,10.6299 z"
       id="path31737-4"
       inkscape:connector-curvature="0"
       sodipodi:nodetypes="ccccccc" />
    <path
       style="opacity:1;fill:#ff0000;fill-opacity:1;stroke:none;stroke-width:35.01496124;stroke-miterlimit:4;stroke-dasharray:none;stroke-dashoffset:0;stroke-opacity:1"
       d="m 212.59842,1225.9843 -9.20578,-5.315 0,-10.6299 9.20578,-5.315 9.20579,5.315 0,10.6299 z"
       id="path31737-6"
       inkscape:connector-curvature="0"
       sodipodi:nodetypes="ccccccc" />
    <path
       style="opacity:1;fill:#ff0000;fill-opacity:1;stroke:none;stroke-width:0.70866144;stroke-miterlimit:4;stroke-dasharray:none;stroke-dashoffset:0;stroke-opacity:1"
       d="m 301.18111,1300.3937 a 10.629921,10.629921 0 0 1 -10.62992,10.6299 10.629921,10.629921 0 0 1 -10.62993,-10.6299 10.629921,10.629921 0 0 1 10.62993,-10.6299 10.629921,10.629921 0 0 1 10.62992,10.6299 z"
       id="path5113"
       inkscape:connector-curvature="0" />
    <ellipse
       style="opacity:1;fill:#ff0000;fill-opacity:1;stroke:none;stroke-width:0.70866144;stroke-miterlimit:4;stroke-dasharray:none;stroke-dashoffset:0;stroke-opacity:1"
       id="path5118"
       cx="230.31496"
       cy="1298.6221"
       rx="38.976376"
       ry="30.118139" />
  </g>
</svg>
